# xmcd
#
# Track frame offsets:
#	150
#	22527
#	51502
#	68200
#	85000
#	97262
#	114440
#	136742
#
# Disc length: 2203 seconds
#
# Revision: 1
# Processed by: cddbd v1.5.1PL0 Copyright (c) Steve Scherf et al.
# Submitted via: CDex 1.50Beta5
#
DISCID=60089908
DTITLE=フェーシ - INAI INAI BAW
DYEAR=1900
DGENRE=Soul
TTITLE0=涙のワンナイト首里城
TTITLE1=いにしえ
TTITLE2=LADY
TTITLE3=でぃきらさ
TTITLE4=ハイタイ・カマド
TTITLE5=ふとぅふとぅ
TTITLE6=涙のワンナイト首里城(カラオケ)
TTITLE7=いにしえ(カラオケ)
EXTD=
EXTT0=
EXTT1=
EXTT2=
EXTT3=
EXTT4=
EXTT5=
EXTT6=
EXTT7=
PLAYORDER=
